<svg xmlns="http://www.w3.org/2000/svg" xmlns:xlink="http://www.w3.org/1999/xlink" width="500" zoomAndPan="magnify" viewBox="0 0 375 374.999991" height="500" preserveAspectRatio="xMidYMid meet" version="1.0"><defs><clipPath id="a2e7716f04"><path d="M 4.0625 56.128906 L 370.804688 56.128906 L 370.804688 318.628906 L 4.0625 318.628906 Z M 4.0625 56.128906 " clip-rule="nonzero"/></clipPath><clipPath id="458407a892"><path d="M 4.0625 56.128906 L 370.804688 56.128906 L 370.804688 318.628906 L 4.0625 318.628906 Z M 4.0625 56.128906 " clip-rule="nonzero"/></clipPath><clipPath id="b123fed834"><path d="M 43.046875 79.84375 L 145.570312 79.84375 L 145.570312 182.371094 L 43.046875 182.371094 Z M 43.046875 79.84375 " clip-rule="nonzero"/></clipPath><clipPath id="10ee720a0d"><path d="M 94.308594 79.84375 C 65.996094 79.84375 43.046875 102.796875 43.046875 131.105469 C 43.046875 159.417969 65.996094 182.371094 94.308594 182.371094 C 122.621094 182.371094 145.570312 159.417969 145.570312 131.105469 C 145.570312 102.796875 122.621094 79.84375 94.308594 79.84375 Z M 94.308594 79.84375 " clip-rule="nonzero"/></clipPath><clipPath id="e924bc0ce0"><path d="M 0.046875 0.84375 L 102.570312 0.84375 L 102.570312 103.371094 L 0.046875 103.371094 Z M 0.046875 0.84375 " clip-rule="nonzero"/></clipPath><clipPath id="5067b77f16"><path d="M 51.308594 0.84375 C 22.996094 0.84375 0.046875 23.796875 0.046875 52.105469 C 0.046875 80.417969 22.996094 103.371094 51.308594 103.371094 C 79.621094 103.371094 102.570312 80.417969 102.570312 52.105469 C 102.570312 23.796875 79.621094 0.84375 51.308594 0.84375 Z M 51.308594 0.84375 " clip-rule="nonzero"/></clipPath><clipPath id="2943a4e3dc"><rect x="0" width="103" y="0" height="104"/></clipPath><clipPath id="f4443c0441"><path d="M 180.617188 79.84375 L 283.140625 79.84375 L 283.140625 182.371094 L 180.617188 182.371094 Z M 180.617188 79.84375 " clip-rule="nonzero"/></clipPath><clipPath id="1a095d2d85"><path d="M 231.878906 79.84375 C 203.566406 79.84375 180.617188 102.796875 180.617188 131.105469 C 180.617188 159.417969 203.566406 182.371094 231.878906 182.371094 C 260.1875 182.371094 283.140625 159.417969 283.140625 131.105469 C 283.140625 102.796875 260.1875 79.84375 231.878906 79.84375 Z M 231.878906 79.84375 " clip-rule="nonzero"/></clipPath><clipPath id="d31ea4c3d8"><path d="M 0.617188 0.84375 L 103.140625 0.84375 L 103.140625 103.371094 L 0.617188 103.371094 Z M 0.617188 0.84375 " clip-rule="nonzero"/></clipPath><clipPath id="b3dbfb13fd"><path d="M 51.878906 0.84375 C 23.566406 0.84375 0.617188 23.796875 0.617188 52.105469 C 0.617188 80.417969 23.566406 103.371094 51.878906 103.371094 C 80.1875 103.371094 103.140625 80.417969 103.140625 52.105469 C 103.140625 23.796875 80.1875 0.84375 51.878906 0.84375 Z M 51.878906 0.84375 " clip-rule="nonzero"/></clipPath><clipPath id="91ffe03224"><rect x="0" width="104" y="0" height="104"/></clipPath><clipPath id="9d02f95be4"><path d="M 54.480469 91.28125 L 94.308594 91.28125 L 94.308594 131.105469 L 54.480469 131.105469 Z M 54.480469 91.28125 " clip-rule="nonzero"/></clipPath><clipPath id="c573321bae"><path d="M 74.394531 91.28125 C 63.398438 91.28125 54.480469 100.195312 54.480469 111.195312 C 54.480469 122.191406 63.398438 131.105469 74.394531 131.105469 C 85.394531 131.105469 94.308594 122.191406 94.308594 111.195312 C 94.308594 100.195312 85.394531 91.28125 74.394531 91.28125 Z M 74.394531 91.28125 " clip-rule="nonzero"/></clipPath><clipPath id="be6ef96d00"><path d="M 0.480469 0.28125 L 40.308594 0.28125 L 40.308594 40.105469 L 0.480469 40.105469 Z M 0.480469 0.28125 " clip-rule="nonzero"/></clipPath><clipPath id="4674b285d8"><path d="M 20.394531 0.28125 C 9.398438 0.28125 0.480469 9.195312 0.480469 20.195312 C 0.480469 31.191406 9.398438 40.105469 20.394531 40.105469 C 31.394531 40.105469 40.308594 31.191406 40.308594 20.195312 C 40.308594 9.195312 31.394531 0.28125 20.394531 0.28125 Z M 20.394531 0.28125 " clip-rule="nonzero"/></clipPath><clipPath id="3cec3a5c4f"><rect x="0" width="41" y="0" height="41"/></clipPath><clipPath id="0732081d9b"><path d="M 192.050781 91.28125 L 231.878906 91.28125 L 231.878906 131.105469 L 192.050781 131.105469 Z M 192.050781 91.28125 " clip-rule="nonzero"/></clipPath><clipPath id="2ca9928ad8"><path d="M 211.964844 91.28125 C 200.964844 91.28125 192.050781 100.195312 192.050781 111.195312 C 192.050781 122.191406 200.964844 131.105469 211.964844 131.105469 C 222.960938 131.105469 231.878906 122.191406 231.878906 111.195312 C 231.878906 100.195312 222.960938 91.28125 211.964844 91.28125 Z M 211.964844 91.28125 " clip-rule="nonzero"/></clipPath><clipPath id="0ac353ad24"><path d="M 0.0507812 0.28125 L 39.878906 0.28125 L 39.878906 40.105469 L 0.0507812 40.105469 Z M 0.0507812 0.28125 " clip-rule="nonzero"/></clipPath><clipPath id="d832cd1bd0"><path d="M 19.964844 0.28125 C 8.964844 0.28125 0.0507812 9.195312 0.0507812 20.195312 C 0.0507812 31.191406 8.964844 40.105469 19.964844 40.105469 C 30.960938 40.105469 39.878906 31.191406 39.878906 20.195312 C 39.878906 9.195312 30.960938 0.28125 19.964844 0.28125 Z M 19.964844 0.28125 " clip-rule="nonzero"/></clipPath><clipPath id="24a42fd48c"><rect x="0" width="40" y="0" height="41"/></clipPath><clipPath id="d514a0cf2b"><path d="M 108.507812 207.757812 L 275.757812 207.757812 L 275.757812 291.757812 L 108.507812 291.757812 Z M 108.507812 207.757812 " clip-rule="nonzero"/></clipPath><clipPath id="45a414116e"><path d="M 156.378906 231.789062 L 227.628906 231.789062 L 227.628906 267.789062 L 156.378906 267.789062 Z M 156.378906 231.789062 " clip-rule="nonzero"/></clipPath></defs><g clip-path="url(#a2e7716f04)"><path fill="#000000" d="M 277.742188 318.628906 C 322.164062 318.628906 344.066406 316.550781 356.394531 304.222656 C 368.726562 291.902344 370.804688 270.011719 370.804688 225.601562 L 370.804688 159.820312 C 370.804688 115.414062 368.726562 93.523438 356.394531 81.199219 C 356.089844 80.890625 355.777344 80.59375 355.460938 80.300781 L 355.449219 80.289062 L 343.886719 69.632812 L 343.875 69.621094 C 331.378906 58.105469 309.476562 56.128906 266.171875 56.128906 L 97.121094 56.128906 C 54.347656 56.128906 32.457031 58.054688 19.886719 69.199219 C 19.398438 69.628906 18.929688 70.074219 18.46875 70.53125 C 6.140625 82.855469 4.0625 104.746094 4.0625 149.152344 L 4.0625 214.929688 C 4.0625 259.335938 6.140625 281.226562 18.46875 293.546875 L 18.46875 293.550781 L 18.472656 293.550781 C 18.773438 293.851562 19.078125 294.144531 19.390625 294.433594 C 19.394531 294.4375 19.398438 294.441406 19.402344 294.445312 L 30.9375 305.097656 L 30.960938 305.121094 C 43.457031 316.648438 65.359375 318.628906 108.683594 318.628906 Z M 277.742188 318.628906 " fill-opacity="1" fill-rule="nonzero"/></g><path fill="#ffffff" d="M 266.171875 57.855469 C 350.871094 57.855469 357.5 64.484375 357.5 149.152344 L 357.5 214.929688 C 357.5 299.597656 350.871094 306.222656 266.171875 306.222656 L 97.121094 306.222656 C 12.417969 306.222656 5.789062 299.597656 5.789062 214.929688 L 5.789062 149.152344 C 5.789062 64.484375 12.417969 57.855469 97.121094 57.855469 Z M 266.171875 57.855469 " fill-opacity="1" fill-rule="nonzero"/><g clip-path="url(#458407a892)"><path stroke-linecap="butt" transform="matrix(0.238765, 0, 0, 0.238636, 4.06085, 56.128597)" fill="none" stroke-linejoin="miter" d="M 1097.775975 7.236415 C 1452.514076 7.236415 1480.277326 35.01469 1480.277326 389.813818 L 1480.277326 665.452227 C 1480.277326 1020.251354 1452.514076 1048.01326 1097.775975 1048.01326 L 389.75583 1048.01326 C 35.001369 1048.01326 7.238118 1020.251354 7.238118 665.452227 L 7.238118 389.813818 C 7.238118 35.01469 35.001369 7.236415 389.75583 7.236415 Z M 1097.775975 7.236415 " stroke="#000000" stroke-width="10" stroke-opacity="1" stroke-miterlimit="10"/></g><g clip-path="url(#b123fed834)"><g clip-path="url(#10ee720a0d)"><g transform="matrix(1, 0, 0, 1, 43, 79)"><g clip-path="url(#2943a4e3dc)"><g clip-path="url(#e924bc0ce0)"><g clip-path="url(#5067b77f16)"><path fill="#000000" d="M 0.046875 0.84375 L 102.570312 0.84375 L 102.570312 103.371094 L 0.046875 103.371094 Z M 0.046875 0.84375 " fill-opacity="1" fill-rule="nonzero"/></g></g></g></g></g></g><g clip-path="url(#f4443c0441)"><g clip-path="url(#1a095d2d85)"><g transform="matrix(1, 0, 0, 1, 180, 79)"><g clip-path="url(#91ffe03224)"><g clip-path="url(#d31ea4c3d8)"><g clip-path="url(#b3dbfb13fd)"><path fill="#000000" d="M 0.617188 0.84375 L 103.140625 0.84375 L 103.140625 103.371094 L 0.617188 103.371094 Z M 0.617188 0.84375 " fill-opacity="1" fill-rule="nonzero"/></g></g></g></g></g></g><g clip-path="url(#9d02f95be4)"><g clip-path="url(#c573321bae)"><g transform="matrix(1, 0, 0, 1, 54, 91)"><g clip-path="url(#3cec3a5c4f)"><g clip-path="url(#be6ef96d00)"><g clip-path="url(#4674b285d8)"><path fill="#ffffff" d="M 0.480469 0.28125 L 40.308594 0.28125 L 40.308594 40.105469 L 0.480469 40.105469 Z M 0.480469 0.28125 " fill-opacity="1" fill-rule="nonzero"/></g></g></g></g></g></g><g clip-path="url(#0732081d9b)"><g clip-path="url(#2ca9928ad8)"><g transform="matrix(1, 0, 0, 1, 192, 91)"><g clip-path="url(#24a42fd48c)"><g clip-path="url(#0ac353ad24)"><g clip-path="url(#d832cd1bd0)"><path fill="#ffffff" d="M 0.0507812 0.28125 L 39.878906 0.28125 L 39.878906 40.105469 L 0.0507812 40.105469 Z M 0.0507812 0.28125 " fill-opacity="1" fill-rule="nonzero"/></g></g></g></g></g></g><g clip-path="url(#d514a0cf2b)"><path fill="#000000" d="M 275.6875 207.757812 L 275.6875 208.152344 C 275.6875 219.4375 273.476562 230.386719 269.121094 240.691406 C 264.914062 250.648438 258.886719 259.589844 251.214844 267.265625 C 243.542969 274.945312 234.605469 280.972656 224.65625 285.183594 C 214.355469 289.542969 203.414062 291.753906 192.132812 291.753906 C 180.851562 291.753906 169.910156 289.542969 159.609375 285.183594 C 149.660156 280.972656 140.722656 274.945312 133.050781 267.265625 C 125.378906 259.589844 119.351562 250.648438 115.144531 240.691406 C 110.789062 230.386719 108.578125 219.4375 108.578125 208.152344 L 108.578125 207.757812 Z M 275.6875 207.757812 " fill-opacity="1" fill-rule="nonzero"/></g><g clip-path="url(#45a414116e)"><path fill="#ffffff" d="M 227.691406 231.789062 L 227.691406 231.957031 C 227.691406 236.769531 226.75 241.4375 224.890625 245.832031 C 223.097656 250.074219 220.527344 253.886719 217.253906 257.160156 C 213.980469 260.433594 210.167969 263.003906 205.921875 264.796875 C 201.527344 266.65625 196.863281 267.601562 192.050781 267.601562 C 187.238281 267.601562 182.570312 266.65625 178.175781 264.796875 C 173.933594 263.003906 170.121094 260.433594 166.847656 257.160156 C 163.574219 253.886719 161.003906 250.074219 159.207031 245.832031 C 157.351562 241.4375 156.40625 236.769531 156.40625 231.957031 L 156.40625 231.789062 Z M 227.691406 231.789062 " fill-opacity="1" fill-rule="nonzero"/></g></svg>